<svg id="Layer_1" data-name="Layer 1" xmlns="http://www.w3.org/2000/svg" viewBox="0 256 1024 768" fill="#fff"><path d="M164.44,248.26c-1.13.82-2,3.38-3.12,9.32-2.91,15.22-1.87,40.45,2.38,59,.91,4,4.42,15.69,5.85,19.6a20.15,20.15,0,0,1,1.09,3.38c-.65,0-17.6-31.91-17.6-33.08,0-.18-1.26-3-2.78-6.24s-3.64-8.33-4.77-11.19c-2.73-6.94-4.38-8.41-7-6.16-1.34,1.13-1.6,2.3-2.86,12.45a238.7,238.7,0,0,0-.91,34.68,136,136,0,0,0,5.85,31.26c.57,1.64.91,2.86.74,2.68s-1.82-2-3.73-4c-11-11.92-30.34-34.55-42.74-50.07-1.91-2.38-3.78-4.6-4.17-4.9-1-.78-2.42-.65-3.77.43l-1.21,1,.26,5.2c.3,5.68,1.26,11.06,3.6,20.2,4.94,19,15.43,40.67,27.18,55.93,1.21,1.56,2.38,3.12,2.64,3.47s-2.73-2.39-6.63-6.07c-6.89-6.51-16.39-16.3-20.68-21.33L86.23,357c-2-2.34-5-5.9-6.63-7.94-3.26-4.07-4.51-4.89-6.42-4.24s-2.21,1.77-1.91,5c.44,4.25,3.17,19.29,3.9,21.46a26.24,26.24,0,0,1,1,3.64,73.4,73.4,0,0,0,2.21,7.55c5,15.08,9.8,25.27,16.52,35.33,4.68,7,6.67,9.41,13.48,16.39,3.25,3.29,5,5.37,4.38,5.16-11.84-4.64-22.33-12.14-35.94-25.67-6.59-6.59-8-7.8-9.11-7.8A2.79,2.79,0,0,0,65.46,407c-1.17,1.51-1,2.86,1.39,11,2.21,7.63,2.86,9.27,6.85,17.55,9,18.69,22.93,33.86,39.41,42.92,13,7.16,15.35,8.5,14.56,8.33-10.36-2.6-27.48-9-40.49-15.05-6-2.81-6.67-2.9-8.28-1.17-1.21,1.3-1.08,2.17.83,5.42,12.14,20.72,35.46,40.32,59.22,49.73a76.37,76.37,0,0,0,7.5,2.64c.78.18,1.34.35,1.25.48-.39.35-11-1.65-21.24-4-5.72-1.34-10.75-2.3-11.18-2.17a2.92,2.92,0,0,0-2.13,2.78c0,1.69,2.47,4.68,7.81,9.36,14.56,12.92,40,24.93,66.5,31.48,2,.47,2.08.56,1.08.91a129.31,129.31,0,0,1-13.61.34c-6.89,0-12.79-.08-13.09,0a2.7,2.7,0,0,0-1.87,2.6c0,1,.65,1.65,3.82,4,11.05,8.37,24.71,14.27,40,17.3l4.81,1-2.95,1.73a64.23,64.23,0,0,1-12.27,5.64c-1.3.39-5.5,1.21-9.32,1.82s-9.19,1.47-11.92,1.95-6.72,1-8.89,1.34c-5.8.69-15.69,2.78-18.42,3.86-10.71,4.16-22.72,10.84-37.07,20.64-9.28,6.37-20.59,13.87-25.19,16.69-17,10.49-22.06,13.44-26.61,15.34-2.26.91-4.3,1.82-4.56,2-.95.69-8.88,3-11.92,3.38a59.31,59.31,0,0,1-7.8.52c-7.37,0-12.23-1.73-16.52-6.07-3.47-3.47-4.51-6.63-4.51-13.7,0-4.81.13-5.51,1.48-9,3-8.11,10.31-16.74,19.94-23.67,11.92-8.59,18.77-9.59,27.66-4a34.46,34.46,0,0,0,24.62,4.55,36,36,0,0,0,15.13-8.06,26,26,0,0,0,3.3-3.43c0-.22-1,0-2.17.56-2,.83-2.43.87-5.25.39-5.76-1-8.54-3-12-8.71-3.12-5.07-6.85-8.71-10.84-10.58-5.46-2.56-13.78-2-21.5,1.43-14.09,6.33-31.69,20.55-39.84,32.21C3.86,629.68,0,640.26,0,649.71s3.6,16.78,11.06,22.41A31.08,31.08,0,0,0,23,678.06c4.33,1.13,16.86,1.08,21.24-.13a99.69,99.69,0,0,0,25.32-11.27A194.94,194.94,0,0,1,96.85,653c10.67-4.08,16.61-5.55,25.32-6.29l3.64-.3-.87,1.69c-4.11,8-14.22,21.68-23.71,32-9.71,10.49-12.79,12.83-22.59,17-3,1.3-5.59,2.34-5.81,2.34s-2.86,1.12-5.89,2.56-6.68,3-8,3.59c-4.86,2.17-6.46,4.3-10,13a131.63,131.63,0,0,0-8,27.92,22.48,22.48,0,0,0-.26,8.41c1,7.15,2.86,9.4,8.54,10.44,6.55,1.17,11,1.39,21.29.91,9.71-.39,10.66-.52,16.12-2a42.25,42.25,0,0,0,7.59-2.56c2.86-1.69,5-5.16,5-8,0-2.47-2.13-6.89-4.34-8.93-1-.95-2.21-2.08-2.64-2.47-1.52-1.43-1.48-2.82.3-8.11,1-3,2-5.37,2.65-5.94,1-1,4.85-2.21,11.4-3.68S121,721,140.9,715.65c10.53-2.82,17-5,18.68-6.2.87-.7,4.21-3.51,7.37-6.33,7.68-6.72,11-9.67,16.17-14.13,2.39-2,6-5.21,8-7,5.9-5.16,7.42-6.29,7.42-5.38,0,1.3,3.08,9.41,5.33,14s2.21,4.55,2.21,8.67c0,4.81-.43,6.11-6.16,20.16-3.68,9.06-3.72,9.14-3.72,13-.05,3.47.08,4.12,1.12,5.86s14.09,14.74,20.51,20.33a41.74,41.74,0,0,0,17.3,8.93c2.6.61,4.33.65,13.65.22,11.49-.48,17.52-1.05,19.43-1.78a11.68,11.68,0,0,0,5.67-4.68c1.05-1.78,1.18-2.43,1.18-5.94s-.18-4.21-1.44-6.81a16.14,16.14,0,0,0-7.89-7.59c-3.51-1.64-6.2-1.73-10.57-.34a31.42,31.42,0,0,1-4.51,1.12c-1.78,0-3.34-2-8.8-11.49a7.19,7.19,0,0,1-.78-5.93c.47-1.52,1.9-3.26,8.45-9.89,8.8-8.93,11.06-11.88,12.31-15.95a19.17,19.17,0,0,0,.44-9.58,5.27,5.27,0,0,1-.31-1.61s2.43.39,5.29,1a281.07,281.07,0,0,0,28,3.72c8,.61,39.28.7,44.66.09l3.25-.39.74,3.82.73,3.77L343,701.86c-.91,1.35-2,3.08-2.34,3.82a29.65,29.65,0,0,0-2.48,10.58c0,5.54.57,12.61,1,12.44.22-.05,1-2.17,1.78-4.64,1.56-5.16,3.12-7.89,5-8.89,1.52-.78,2.48-.82,5-.17,1.73.43,2,.69,3.68,3.9,5.6,10.49,12.79,18.81,20.73,24,1.82,1.17,1.82,1.17,1.17,2.47-1.26,2.43-3,2.47-10.19.3a36.43,36.43,0,0,0-5-1.26c-1.34,0-2.08,4.17-2.08,11.49,0,5.55.09,6.25,1.08,8.24a18.1,18.1,0,0,0,7.94,7.63,17.81,17.81,0,0,1,4.42,3,8.38,8.38,0,0,0,2,1.74c.56,0,.39-1-.35-1.78s-.61-.74.35-.52.73-.05-.87-1.69c-2.82-2.95-4.38-8-3.12-10.32.39-.74.69-.65,4.29,1.21,3.3,1.65,4.34,2,7.11,2.17a24.6,24.6,0,0,0,5.38-.3,45.83,45.83,0,0,0,10.14-4.42l2-1.26,3.25,1c17.82,5.72,25.58,5.33,29.09-1.56l.61-1.22,1.13,1.78c1.47,2.26,1.91,5.51,1.25,9.8a17.56,17.56,0,0,0-.3,3.51c.39.35,4.51-3.38,6-5.46,3.42-4.68,4.46-8.8,4.07-15.87-.26-4.16-1.86-11.53-2.73-12.4-.26-.26-1.34-.17-2.77.22a93.3,93.3,0,0,1-15.74,1.95c-7.33,0-17.47-2.56-22.63-5.68a42.35,42.35,0,0,1-9.36-8.15,48.26,48.26,0,0,1-6.64-12.18c-1.34-4.08-2.17-11.92-1.82-17.13a57.77,57.77,0,0,1,3-14.52l1-2.82,5.38-2.43c14.52-6.54,29.39-18.25,37.67-29.74l2.82-3.9,5.77.22a56.7,56.7,0,0,0,16.6-1.65,11,11,0,0,1,3.38-.61c.52.53.13,3.56-.6,4.64-1.44,2.21-10.24,7.68-12.32,7.68-1.12,0-1.12.56-.08,2.08.43.65,1.69,2.56,2.81,4.29,3.69,5.64,8.63,9.28,13.57,9.88,3.47.44,13.57-2.77,13.57-4.33,0-.3-1.3-.87-2.9-1.26a15.61,15.61,0,0,1-4.34-1.69c-1.25-.82-2.73-3-2.73-4.07a4.49,4.49,0,0,1,2.17-.87,24.48,24.48,0,0,0,12.88-8.5l1.6-2.3,2.64,1.3c3.65,1.83,7.07,2,9.85.57l2-1.09.26.91c1.13,4.25-1.69,10.06-5.9,12.1-2.55,1.21-2.77,2.17-.43,1.86.87-.08,2.6-.3,3.77-.43a32.73,32.73,0,0,0,9-2.64,31.47,31.47,0,0,0,7.32-6.85c1.22-1.65,1.26-1.82,1.26-7.46v-5.81l-1.82-.91c-9.28-4.68-16.87-12.27-26-26-1.47-2.22-2.73-4.12-2.82-4.17s-3.29.91-7.19,2.21c-10.06,3.39-19.12,5.25-25.58,5.25a28.78,28.78,0,0,1-5.29-.22,21.42,21.42,0,0,1,.39-5.2,144.26,144.26,0,0,0,0-26.62C442,570.68,438,561.66,428,549.74a93.61,93.61,0,0,0-13.4-12.53c-2.13-1.43-2.21-1.56-2.78-4.56-1-5.76-1.08-31.82,0-33.55.26-.39.69-.3,1.82.35a168.32,168.32,0,0,0,17.95,8c8.28,2.73,14.87,3.3,21.42,1.91,4.33-.95,5.59-1.52,8.1-3.86,2.17-2,2.82-3.73,2.43-6.33l-.3-1.9-1,.91c-1.43,1.21-2.73,1.56-6.16,1.56h-2.86l-2.9-2.6c-8.33-7.5-10.5-9.33-12.79-10.67-1.48-.87-2.43-1.69-2.35-2a.35.35,0,0,0-.34-.52c-1.13,0,7.85-7.41,11.75-9.67,6.5-3.77,17.81-5.72,21.85-3.72,2.12,1,3,2.64,3.25,6,.17,2.08.39,2.91.74,2.69a30.36,30.36,0,0,0,2.47-5.29c2.25-5.68,3.55-12.74,3.07-16.6-1-8.11-8.15-13.27-18.38-13.4-5.29,0-15.91,2.13-22.84,4.64a15.46,15.46,0,0,1-3.08.91,8.7,8.7,0,0,1,2.12-1.56c3.08-1.86,6.46-5.42,6.46-6.72s-1.39-2.64-3.47-3.6c-2.77-1.26-12.27-1.21-23,.09-9.5,1.17-17.82,2.43-23.11,3.55-7.63,1.56-20.68-.39-26.32-3.94-1.6-1-5.2-4.73-5.2-5.33a5,5,0,0,0-1.26-1.7c-1.95-2.08-3.59-5.2-3.59-6.85,0-3-2.22-.91-3.65,3.47-.65,2-.82,3.86-.82,8.24,0,6.68.78,9.62,4.21,15.69,1.17,2.09,1.9,3.86,1.64,3.95s-2,1.13-3.77,2.34c-3.9,2.51-10.88,9.41-14.74,14.48-6.28,8.28-15.13,23.54-18.34,31.6s-5.94,20.94-5.59,26.19c.09,1.21.13,2.21.13,2.21-.3,0-6.33-9.58-8.76-13.87a117.47,117.47,0,0,1-8.41-17.47,137.89,137.89,0,0,1-6.41-20.47c-1.39-6.89-2.3-16.47-2-21.67l.26-4.77-6-6.29a436.44,436.44,0,0,1-45.65-57.22A380.27,380.27,0,0,1,213.64,348c-6.11-11.79-17.9-36-22.24-45.78-1-2.25-3-6.85-4.55-10.18s-3.16-7.24-3.77-8.68-1.65-3.77-2.3-5.2c-1.3-2.86-5.68-13.52-9.36-22.76C168.47,248.09,167,246.48,164.44,248.26Z"/><path d="M852.58,255.3c-3.68,9.23-8.06,19.9-9.36,22.76-.65,1.43-1.69,3.77-2.3,5.2s-2.3,5.34-3.77,8.67-3.56,7.94-4.55,10.19c-4.34,9.76-16.13,34-22.24,45.78a380.27,380.27,0,0,1-24.76,41.8A436.44,436.44,0,0,1,740,446.92l-6,6.29.26,4.77c.3,5.2-.61,14.78-2,21.67a137.89,137.89,0,0,1-6.41,20.47,117.47,117.47,0,0,1-8.41,17.47c-2.43,4.29-8.46,13.87-8.76,13.87,0,0,0-1,.13-2.21.35-5.25-2.38-18.17-5.59-26.19s-12.06-23.32-18.34-31.6c-3.86-5.07-10.84-12-14.74-14.48-1.82-1.21-3.56-2.26-3.77-2.34s.47-1.87,1.64-3.95c3.43-6.07,4.21-9,4.21-15.69,0-4.38-.17-6.2-.82-8.24-1.43-4.38-3.65-6.5-3.65-3.47,0,1.65-1.64,4.77-3.59,6.85a5.12,5.12,0,0,0-1.26,1.69c0,.61-3.6,4.3-5.2,5.34-5.64,3.55-18.69,5.5-26.32,3.94-5.29-1.13-13.61-2.38-23.11-3.55-10.7-1.3-20.2-1.35-23-.09-2.08.95-3.47,2.34-3.47,3.6s3.38,4.85,6.46,6.72a8.7,8.7,0,0,1,2.12,1.56,15.46,15.46,0,0,1-3.08-.91c-6.93-2.52-17.55-4.68-22.84-4.64-10.23.13-17.34,5.29-18.38,13.4-.48,3.85.82,10.92,3.07,16.6a30.36,30.36,0,0,0,2.47,5.29c.35.22.57-.61.74-2.69.26-3.38,1.13-5,3.25-6,4-2,15.35-.05,21.85,3.72,3.9,2.26,12.88,9.63,11.75,9.67a.35.35,0,0,0-.34.52c.08.35-.87,1.17-2.35,2-2.29,1.34-4.46,3.16-12.79,10.66l-2.9,2.61H568c-3.43,0-4.73-.35-6.16-1.57l-1-.91-.3,1.91c-.39,2.6.26,4.34,2.43,6.33,2.51,2.34,3.77,2.91,8.1,3.86,6.55,1.39,13.14.82,21.42-1.91a168.32,168.32,0,0,0,18-8c1.13-.66,1.56-.74,1.82-.35,1,1.73,1,27.79,0,33.55-.57,3-.65,3.13-2.78,4.56A94.08,94.08,0,0,0,596,549.62c-10,11.93-14,20.94-15.69,35.38a144.26,144.26,0,0,0,0,26.62,21.42,21.42,0,0,1,.39,5.2,28.78,28.78,0,0,1-5.29.22c-6.46,0-15.52-1.87-25.58-5.25-3.9-1.3-7.15-2.29-7.19-2.21s-1.35,1.95-2.82,4.16c-9.1,13.79-16.69,21.38-26,26.06l-1.82.91v5.81c0,5.63,0,5.81,1.26,7.46a31.69,31.69,0,0,0,7.32,6.85,32.73,32.73,0,0,0,9,2.64c1.17.13,2.9.35,3.77.43,2.34.31,2.12-.65-.43-1.86-4.21-2-7-7.85-5.9-12.1l.26-.91,2,1.09c2.78,1.47,6.2,1.25,9.85-.57l2.64-1.3,1.6,2.3a24.48,24.48,0,0,0,12.88,8.5,4.63,4.63,0,0,1,2.17.86c0,1.05-1.48,3.26-2.73,4.08a15.61,15.61,0,0,1-4.34,1.69c-1.6.39-2.9,1-2.9,1.26,0,1.56,10.1,4.77,13.57,4.33,4.94-.6,9.88-4.25,13.57-9.88,1.12-1.74,2.38-3.64,2.81-4.29,1-1.52,1-2.08-.08-2.08-2.08,0-10.88-5.47-12.32-7.68-.73-1.08-1.12-4.12-.6-4.64a11,11,0,0,1,3.38.61,57.39,57.39,0,0,0,16.6,1.65l5.77-.22,2.82,3.9c8.28,11.49,23.15,23.2,37.67,29.74l5.38,2.43,1,2.82a57.77,57.77,0,0,1,3,14.52c.35,5.2-.48,13.05-1.82,17.13a48.26,48.26,0,0,1-6.64,12.18,42.35,42.35,0,0,1-9.36,8.15c-5.16,3.12-15.3,5.68-22.63,5.68a94.33,94.33,0,0,1-15.74-1.95c-1.43-.39-2.51-.48-2.77-.22-.87.87-2.47,8.24-2.73,12.4-.39,7.07.65,11.19,4.07,15.87,1.52,2.08,5.64,5.81,6,5.46a17.56,17.56,0,0,0-.3-3.51c-.66-4.29-.22-7.55,1.25-9.8l1.13-1.78.61,1.22c3.51,6.89,11.27,7.28,29.09,1.56l3.25-1,1.95,1.25a45.41,45.41,0,0,0,10.14,4.43,24.6,24.6,0,0,0,5.38.3c2.77-.17,3.81-.52,7.11-2.17,3.6-1.86,3.9-1.95,4.29-1.21,1.26,2.34-.3,7.37-3.12,10.32-1.6,1.64-1.69,1.9-.87,1.69s1-.18.35.52-.91,1.77-.35,1.77a8.49,8.49,0,0,0,2-1.73,17.81,17.81,0,0,1,4.42-3,18.1,18.1,0,0,0,7.94-7.63c1-2,1.08-2.69,1.08-8.24,0-7.32-.74-11.49-2.08-11.49a36.43,36.43,0,0,0-5,1.26c-7.24,2.17-8.93,2.12-10.19-.3-.65-1.3-.65-1.3,1.17-2.47,7.94-5.21,15.13-13.53,20.73-24,1.69-3.21,2-3.47,3.68-3.9,2.51-.65,3.47-.61,5,.17,1.86,1,3.42,3.73,5,8.89.74,2.47,1.56,4.59,1.78,4.64.43.17,1-6.9,1-12.45a29.65,29.65,0,0,0-2.48-10.57c-.39-.74-1.43-2.48-2.34-3.82l-1.64-2.51.73-3.78.74-3.81,3.25.39c5.38.61,36.68.52,44.66-.09a278,278,0,0,0,28-3.73c2.86-.56,5.24-1,5.29-1a5.23,5.23,0,0,1-.31,1.6,19.21,19.21,0,0,0,.44,9.59c1.25,4.07,3.51,7,12.31,15.95,6.55,6.63,8,8.37,8.45,9.88a7.21,7.21,0,0,1-.78,5.94c-5.46,9.45-7,11.49-8.8,11.49a31.42,31.42,0,0,1-4.51-1.12c-4.37-1.39-7.06-1.31-10.57.34a16.14,16.14,0,0,0-7.89,7.59c-1.26,2.6-1.39,3.25-1.44,6.81s.13,4.16,1.18,5.93a11.65,11.65,0,0,0,5.67,4.69c1.91.73,7.94,1.3,19.43,1.77,9.32.44,11,.39,13.65-.21a41.74,41.74,0,0,0,17.3-8.93c6.42-5.6,19.47-18.56,20.51-20.34s1.17-2.38,1.12-5.85c0-3.86,0-3.94-3.72-13-5.73-14-6.12-15.35-6.16-20.16,0-4.12,0-4.17,2.21-8.67s5.33-12.75,5.33-14.05c0-.91,1.52.22,7.42,5.38,2,1.77,5.63,4.94,8,7,5.16,4.47,8.49,7.42,16.17,14.14,3.16,2.82,6.5,5.63,7.37,6.33,1.64,1.21,8.15,3.38,18.68,6.2,19.86,5.33,27.66,7.32,34.25,8.8s10.36,2.69,11.4,3.68c.61.57,1.65,2.91,2.65,5.94,1.78,5.29,1.82,6.68.3,8.11-.43.39-1.65,1.52-2.64,2.47-2.21,2-4.34,6.46-4.34,8.93,0,2.86,2.17,6.33,5,8a43.09,43.09,0,0,0,7.59,2.56c5.46,1.47,6.41,1.6,16.12,2,10.28.48,14.74.26,21.29-.91,5.68-1,7.5-3.29,8.54-10.45a22.49,22.49,0,0,0-.26-8.41,132,132,0,0,0-8-27.92c-3.55-8.67-5.15-10.79-10-13-1.3-.6-4.9-2.21-8-3.6s-5.72-2.55-5.89-2.55-2.82-1-5.81-2.34c-9.8-4.17-12.88-6.51-22.59-17-9.49-10.27-19.6-23.93-23.71-31.95l-.87-1.69,3.64.3c8.71.74,14.65,2.21,25.32,6.29a194.94,194.94,0,0,1,27.31,13.7,99.69,99.69,0,0,0,25.32,11.27c4.38,1.21,16.91,1.26,21.24.13a31.08,31.08,0,0,0,11.92-5.94c7.46-5.64,11.06-13,11.06-22.41s-3.86-20-11.1-30.44c-8.15-11.66-25.75-25.88-39.84-32.21-7.72-3.47-16-4-21.5-1.43-4,1.87-7.72,5.51-10.84,10.58-3.51,5.72-6.29,7.72-12.05,8.71-2.82.48-3.25.44-5.25-.39-1.17-.52-2.17-.78-2.17-.56a25.57,25.57,0,0,0,3.3,3.42,35.94,35.94,0,0,0,15.13,8.07,34.51,34.51,0,0,0,24.62-4.55c8.89-5.6,15.74-4.6,27.66,4,9.63,6.94,16.91,15.57,19.94,23.68,1.35,3.46,1.44,4.16,1.48,9,0,7.07-1,10.23-4.51,13.7-4.29,4.33-9.15,6.11-16.52,6.07a59.31,59.31,0,0,1-7.8-.52c-3-.44-11-2.69-11.92-3.38-.26-.18-2.3-1.09-4.56-2-4.55-1.91-9.66-4.85-26.61-15.34-4.6-2.82-15.91-10.32-25.19-16.7-14.35-9.79-26.36-16.47-37.07-20.63-2.73-1.09-12.62-3.17-18.42-3.86-2.17-.3-6.16-.87-8.89-1.34s-8.11-1.35-11.92-1.95-8-1.44-9.32-1.83A63.51,63.51,0,0,1,818.38,594l-3-1.74,4.81-.95c15.26-3,28.92-8.93,40-17.3,3.17-2.38,3.82-3,3.82-4a2.7,2.7,0,0,0-1.87-2.6c-.3,0-6.2,0-13.09,0a129.31,129.31,0,0,1-13.61-.34c-1-.35-.91-.44,1.08-.91,26.53-6.55,51.94-18.56,66.5-31.48,5.34-4.68,7.81-7.67,7.81-9.36a2.92,2.92,0,0,0-2.13-2.78c-.43-.13-5.46.83-11.18,2.17-10.23,2.34-20.85,4.34-21.24,4-.09-.13.47-.3,1.25-.48a76.37,76.37,0,0,0,7.5-2.64c23.76-9.41,47.08-29,59.22-49.73,1.91-3.25,2-4.12.83-5.42-1.61-1.73-2.3-1.65-8.28,1.17-13,6.07-30.13,12.44-40.49,15.05-.79.17,1.6-1.17,14.56-8.33,16.48-9.06,30.39-24.23,39.41-42.92,4-8.28,4.64-9.93,6.85-17.56,2.38-8.1,2.56-9.45,1.39-11a2.79,2.79,0,0,0-2.21-1.17c-1.09,0-2.52,1.21-9.11,7.8-13.61,13.53-24.1,21-35.94,25.66-.65.22,1.13-1.86,4.38-5.15,6.81-7,8.8-9.37,13.48-16.39,6.72-10.06,11.49-20.25,16.52-35.33a73.4,73.4,0,0,0,2.21-7.55,26.24,26.24,0,0,1,1-3.64c.73-2.17,3.46-17.21,3.9-21.46.3-3.21-.13-4.34-1.91-5s-3.16.18-6.42,4.25c-1.6,2-4.59,5.6-6.63,7.94l-5.85,6.72c-4.29,5-13.79,14.82-20.68,21.33-3.9,3.68-6.89,6.41-6.63,6.07s1.43-1.91,2.64-3.47c11.75-15.26,22.24-36.9,27.18-55.93,2.34-9.15,3.3-14.52,3.6-20.2l.26-5.2-1.21-1c-1.35-1.08-2.73-1.21-3.77-.43a63.79,63.79,0,0,0-4.17,4.9c-12.4,15.52-31.69,38.15-42.74,50.07-1.91,2-3.56,3.86-3.73,4s.17-1,.74-2.68a136.09,136.09,0,0,0,5.85-31.26,238.7,238.7,0,0,0-.91-34.68c-1.26-10.15-1.52-11.32-2.86-12.45-2.6-2.25-4.25-.78-7,6.16-1.13,2.86-3.25,7.89-4.77,11.18s-2.78,6.07-2.78,6.25c0,1.17-17,33.08-17.6,33.08a20.39,20.39,0,0,1,1.09-3.39c1.43-3.9,4.94-15.56,5.85-19.59,4.25-18.51,5.29-43.74,2.38-59-1.08-5.94-2-8.5-3.12-9.32C857.05,246.37,855.53,248,852.58,255.3Z"/></svg>